<svg width="21" height="20" viewBox="0 0 21 20" fill="none" xmlns="http://www.w3.org/2000/svg">
<mask id="path-1-inside-1_236_11" fill="white">
<path d="M6.16602 8.92868L8.25817 3.23128C8.60329 2.29144 9.49814 1.66677 10.4993 1.66676C11.5005 1.66675 12.3954 2.29143 12.7405 3.23128L14.8327 8.92868L17.4646 15.1167C18.1131 16.6415 16.9941 18.3334 15.3371 18.3334C14.9008 18.3334 14.4755 18.1963 14.1214 17.9413L10.4993 15.3334L6.87732 17.9413C6.52321 18.1963 6.09791 18.3334 5.66157 18.3334C4.00458 18.3334 2.88561 16.6415 3.53413 15.1167L6.16602 8.92868Z"/>
</mask>
<path d="M6.16602 8.92868L7.08624 9.32006L7.09607 9.29695L7.10473 9.27338L6.16602 8.92868ZM14.8327 8.92868L13.894 9.27338L13.9026 9.29695L13.9125 9.32006L14.8327 8.92868ZM10.4993 15.3334L11.0837 14.5219L10.4993 14.1012L9.91504 14.5219L10.4993 15.3334ZM14.1214 17.9413L14.7057 17.1298L14.1214 17.9413ZM12.7405 3.23128L11.8018 3.57598L12.7405 3.23128ZM8.25817 3.23128L7.31946 2.88657L8.25817 3.23128ZM13.9125 9.32006L16.5443 15.5081L18.3848 14.7254L15.7529 8.53729L13.9125 9.32006ZM4.45436 15.5081L7.08624 9.32006L5.24579 8.53729L2.6139 14.7254L4.45436 15.5081ZM7.10473 9.27338L9.19689 3.57598L7.31946 2.88657L5.22731 8.58397L7.10473 9.27338ZM11.8018 3.57598L13.894 9.27338L15.7714 8.58397L13.6792 2.88657L11.8018 3.57598ZM9.91504 14.5219L6.29301 17.1298L7.46162 18.7528L11.0837 16.145L9.91504 14.5219ZM14.7057 17.1298L11.0837 14.5219L9.91504 16.145L13.5371 18.7528L14.7057 17.1298ZM15.3371 17.3334C15.1105 17.3334 14.8896 17.2622 14.7057 17.1298L13.5371 18.7528C14.0614 19.1303 14.6911 19.3334 15.3371 19.3334V17.3334ZM10.4993 2.66676C11.0812 2.66676 11.6012 3.02979 11.8018 3.57598L13.6792 2.88657C13.1896 1.55308 11.9199 0.66675 10.4993 0.666759L10.4993 2.66676ZM9.19689 3.57598C9.39745 3.0298 9.9175 2.66676 10.4993 2.66676L10.4993 0.666759C9.07878 0.666768 7.80913 1.55309 7.31946 2.88657L9.19689 3.57598ZM2.6139 14.7254C1.68486 16.9097 3.28785 19.3334 5.66157 19.3334V17.3334C4.72131 17.3334 4.08635 16.3734 4.45436 15.5081L2.6139 14.7254ZM6.29301 17.1298C6.10909 17.2622 5.8882 17.3334 5.66157 17.3334V19.3334C6.30762 19.3334 6.93733 19.1303 7.46162 18.7528L6.29301 17.1298ZM16.5443 15.5081C16.9123 16.3734 16.2774 17.3334 15.3371 17.3334V19.3334C17.7108 19.3334 19.3138 16.9097 18.3848 14.7254L16.5443 15.5081Z" fill="#031025" mask="url(#path-1-inside-1_236_11)"/>
</svg>
