<svg width="40" height="40" viewBox="0 0 40 40" fill="none" xmlns="http://www.w3.org/2000/svg">
<circle cx="20" cy="20" r="20" fill="#DEEAFD"/>
<path d="M22.2666 12.8236L22.2666 12.8236C22.0375 12.4284 21.7091 12.1 21.3139 11.8709L21.2387 12.0007L21.3139 11.8709C20.062 11.1451 18.4588 11.5716 17.733 12.8236L17.7329 12.8236L10.9418 24.5497C10.7105 24.9489 10.5887 25.4022 10.5888 25.8635C10.589 27.3107 11.7623 28.4836 13.2094 28.4834H26.7877C26.7877 28.4834 26.7877 28.4834 26.7877 28.4834C27.2494 28.4835 27.703 28.3617 28.1026 28.1302C29.3555 27.4043 29.7828 25.8002 29.057 24.5472L22.2666 12.8236Z" fill="#3079EC" stroke="#3079EC" stroke-width="0.3"/>
<path d="M19.4337 21.2505L19.4337 21.2506L20.417 21.25H20.567V21.2499V17.9167C20.567 17.6037 20.3133 17.35 20.0003 17.35C19.6874 17.35 19.4337 17.6037 19.4337 17.9167L19.4337 21.2505ZM20.0003 23.0792C19.6299 23.0792 19.3295 23.3795 19.3295 23.75C19.3295 24.1205 19.6299 24.4208 20.0003 24.4208C20.3708 24.4208 20.6712 24.1205 20.6712 23.75C20.6712 23.3795 20.3708 23.0792 20.0003 23.0792Z" fill="white" stroke="white" stroke-width="0.3"/>
</svg>
