<svg width="96" height="96" viewBox="0 0 96 96" fill="none" xmlns="http://www.w3.org/2000/svg">
<path d="M60.3751 80.6479L60.6255 81.0581L61.1027 81.0021C70.6503 79.8811 78.0547 71.7632 78.0547 61.9181V42.4896C78.0547 27.3094 65.7503 15.0051 50.5701 15.0051H48.6436C33.4633 15.0051 21.159 27.3094 21.159 42.4896V61.9181C21.159 63.2027 20.116 64.2457 18.8314 64.2457C17.5469 64.2457 16.5039 63.2027 16.5039 61.9181V42.4896C16.5039 24.7402 30.8941 10.35 48.6436 10.35H50.5701C68.3195 10.35 82.7098 24.7402 82.7098 42.4896V61.9181C82.7098 74.3452 73.2155 84.5532 61.0841 85.684L60.6892 85.7208L60.4973 86.0679C59.5744 87.7379 57.7981 88.866 55.7619 88.866C52.7785 88.866 50.3568 86.4443 50.3568 83.4609C50.3568 80.4775 52.7785 78.0558 55.7619 78.0558C57.7117 78.0558 59.4254 79.0921 60.3751 80.6479Z" fill="#AD88FB" stroke="#7444EE" stroke-width="1.5"/>
<path d="M81.5501 47.7782C83.5345 47.7782 85.2834 48.3916 86.5092 49.325C87.7338 50.2575 88.3833 51.4562 88.3833 52.6833V61.9159C88.3833 63.143 87.7338 64.3416 86.5092 65.2742C85.2834 66.2076 83.5345 66.821 81.5501 66.821H77.5085C75.5241 66.821 73.7752 66.2076 72.5494 65.2742C71.3248 64.3416 70.6753 63.143 70.6753 61.9159V52.6833C70.6753 51.4562 71.3248 50.2575 72.5494 49.325C73.7752 48.3916 75.5241 47.7782 77.5085 47.7782H81.5501Z" fill="#7444EE" stroke="#AD88FB" stroke-width="2.5"/>
<path d="M21.7244 47.7782C23.7088 47.7782 25.4577 48.3916 26.6835 49.325C27.9081 50.2575 28.5576 51.4562 28.5576 52.6833V61.9159C28.5576 63.143 27.9081 64.3416 26.6835 65.2742C25.4577 66.2076 23.7088 66.821 21.7244 66.821H17.6828C15.6984 66.821 13.9495 66.2076 12.7237 65.2742C11.4991 64.3416 10.8496 63.143 10.8496 61.9159V52.6833C10.8496 51.4562 11.4991 50.2575 12.7237 49.325C13.9495 48.3916 15.6984 47.7782 17.6828 47.7782H21.7244Z" fill="#7444EE" stroke="#AD88FB" stroke-width="2.5"/>
</svg>
