<svg width="32" height="32" viewBox="0 0 32 32" fill="none" xmlns="http://www.w3.org/2000/svg">
<path d="M16 32C24.8366 32 32 24.8366 32 16C32 7.16344 24.8366 0 16 0C7.16344 0 0 7.16344 0 16C0 24.8366 7.16344 32 16 32Z" fill="#EAF1FD"/>
<path d="M12.3272 27.1295C12.4949 25.6702 12.9851 20.2466 12.0197 20.1132C11.1762 19.9966 6.78467 29.0808 6.78467 29.0808C6.78467 29.0808 7.95006 29.8342 8.35407 30.0578C8.98382 30.4063 10.1164 30.883 10.1164 30.883L12.3272 27.1295Z" fill="#1E2248"/>
<path d="M19.4303 31.631L19.6136 20.991L13.5312 21.4139L13.2207 31.7596C13.2207 31.7596 14.5316 32.0193 16.3824 31.9954C18.1162 31.9729 19.4303 31.631 19.4303 31.631Z" fill="#3079EC"/>
<path d="M19.3951 8.35706C22.3417 12.0742 21.8598 17.2228 21.0789 18.2184C20.0356 19.5485 14.5313 18.6953 12.219 19.0209C11.7765 19.0832 10.2705 14.2226 12.1077 9.37521C12.9951 7.03353 17.6187 6.11626 19.3951 8.35706Z" fill="#111329"/>
<path d="M15.8952 22.8348C14.6496 22.5372 13.3634 21.0892 12.8418 20.3802C12.8418 20.3802 13.6074 19.6878 13.9293 19.5671C16.0382 18.7761 16.9248 18.4826 19.5473 19.3466C19.8577 19.4489 20.7195 19.9259 20.7195 19.9259C20.7035 20.025 17.5208 23.2231 15.8952 22.8348Z" fill="url(#paint0_linear_203_1850)"/>
<path d="M15.568 15.5382L18.2576 15.5062C18.3312 15.5054 18.3917 15.576 18.3927 15.664L18.4295 18.885C18.4411 19.8609 17.7006 20.4452 16.8844 20.4549C16.0681 20.4646 15.4848 19.7614 15.4732 18.7855L15.4365 15.699C15.4356 15.6112 15.4944 15.5391 15.568 15.5382Z" fill="url(#paint1_linear_203_1850)"/>
<path d="M12.6857 13.4198C12.7117 13.7979 13.0362 14.0835 13.4106 14.0579C13.785 14.0322 14.0675 13.7048 14.0415 13.3268C14.0156 12.9487 13.691 12.6631 13.3166 12.6887C12.9422 12.7144 12.6598 13.0418 12.6857 13.4198Z" fill="url(#paint2_linear_203_1850)"/>
<path d="M15.6117 9.07284C17.1354 8.96819 18.4578 10.1533 18.5654 11.7199L18.7429 14.3058C18.8505 15.8723 17.2897 17.2531 15.8471 17.3547C14.2481 17.4671 13.3326 16.2512 13.225 14.6848L13.0475 12.0988C12.94 10.5321 14.088 9.17739 15.6117 9.07284Z" fill="#FFD0CE"/>
<path d="M13.538 8.16094C14.2175 7.55168 16.0291 6.96396 17.7881 8.28767C19.5882 9.64233 18.9128 12.4605 18.6034 12.2607C17.5797 11.5998 17.6886 10.5611 16.7694 10.5875C16.0286 10.6088 14.963 12.6559 12.5286 13.1641C12.339 13.2036 11.9608 11.8614 12.0292 11.2015C12.2256 9.30366 12.9821 8.65934 13.538 8.16094Z" fill="#111329"/>
<path d="M15.6543 12.8235L15.6694 13.0449C15.7013 13.5143 16.0835 13.872 16.5217 13.8425L16.7282 13.8286C17.2802 13.7913 17.6968 13.2799 17.6566 12.6885C17.6398 12.4409 17.4381 12.2522 17.207 12.2677L16.0428 12.3462C15.8118 12.3619 15.6375 12.5758 15.6543 12.8235ZM15.7941 12.814C15.7829 12.6489 15.8991 12.5063 16.0531 12.4958L17.2172 12.4173C17.3713 12.4069 17.5057 12.5327 17.517 12.6978C17.5515 13.2067 17.1932 13.6467 16.7182 13.6788L16.5115 13.6927C16.1505 13.7171 15.8353 13.4221 15.8091 13.0353L15.7941 12.814ZM14.3757 12.4586L13.2115 12.5371C12.9804 12.5527 12.8061 12.7667 12.8229 13.0144C12.863 13.6057 13.3449 14.0567 13.8969 14.0194L14.1035 14.0055C14.5416 13.976 14.8721 13.5701 14.8402 13.1008L14.8252 12.8793C14.8084 12.6318 14.6068 12.4431 14.3757 12.4586ZM14.7006 13.1102C14.7268 13.497 14.4544 13.8315 14.0934 13.8558L13.8867 13.8698C13.4118 13.9018 12.9971 13.5138 12.9626 13.005C12.9514 12.8399 13.0676 12.6972 13.2216 12.6868L14.3858 12.6083C14.5399 12.5979 14.6744 12.7236 14.6855 12.8887L14.7006 13.1102ZM14.9104 12.8729C15.0933 12.7017 15.3654 12.6808 15.572 12.8219C15.6015 12.842 15.6103 12.8838 15.5918 12.9151C15.5734 12.9463 15.5345 12.9555 15.5049 12.9354C15.3453 12.8264 15.1352 12.8426 14.9939 12.9747C14.9831 12.9847 14.9701 12.9902 14.9568 12.991C14.9378 12.9924 14.9184 12.9845 14.905 12.9679C14.882 12.9399 14.8843 12.8972 14.9104 12.8729Z" fill="#1A1B5C"/>
<path d="M19.3331 12.9697C19.3075 12.5916 18.9832 12.3056 18.6088 12.3309C18.2344 12.3563 17.9516 12.6833 17.9772 13.0613C18.0028 13.4394 18.327 13.7254 18.7014 13.7001C19.0758 13.6748 19.3586 13.3477 19.3331 12.9697Z" fill="url(#paint3_linear_203_1850)"/>
<path d="M23.2646 30.2523C23.2287 28.6895 23.2902 21.5359 22.6166 20.8445C21.937 20.1468 18.5984 18.9015 18.5984 18.9015C18.5984 18.9015 19.2967 28.8349 18.0051 31.8689C18.0051 31.8689 19.4518 31.669 20.6848 31.3031C22.2161 30.8486 23.2646 30.2523 23.2646 30.2523ZM14.8061 31.9494C13.3628 20.9909 15.3897 18.8215 15.3897 18.8215C15.3897 18.8215 12.684 19.5518 12.1536 20.2467C11.3013 21.3635 10.7626 29.2234 10.5566 31.0496C10.5566 31.0496 11.6916 31.4357 12.3647 31.5849C13.5445 31.8463 14.8061 31.9494 14.8061 31.9494Z" fill="#22254F"/>
<path d="M25.7632 28.6762C25.3626 26.547 23.8106 20.0448 22.5619 20.4548C21.4014 20.8359 21.5362 29.4394 21.5731 31.0026C21.5731 31.0026 22.8601 30.5103 23.9603 29.8828C24.9144 29.3385 25.7632 28.6762 25.7632 28.6762Z" fill="#1E2248"/>
<defs>
<linearGradient id="paint0_linear_203_1850" x1="17.7991" y1="18.3346" x2="8.76979" y2="35.1777" gradientUnits="userSpaceOnUse">
<stop stop-color="#FFD0CE"/>
<stop offset="1" stop-color="#F4AAA7"/>
</linearGradient>
<linearGradient id="paint1_linear_203_1850" x1="17.9084" y1="20.131" x2="15.5808" y2="15.5188" gradientUnits="userSpaceOnUse">
<stop stop-color="#FFD0CE"/>
<stop offset="1" stop-color="#F4AAA7"/>
</linearGradient>
<linearGradient id="paint2_linear_203_1850" x1="13.9839" y1="13.3246" x2="12.6281" y2="13.4177" gradientUnits="userSpaceOnUse">
<stop stop-color="#FFD0CE"/>
<stop offset="1" stop-color="#F4AAA7"/>
</linearGradient>
<linearGradient id="paint3_linear_203_1850" x1="18.0057" y1="13.134" x2="19.3617" y2="13.0422" gradientUnits="userSpaceOnUse">
<stop stop-color="#FFD0CE"/>
<stop offset="1" stop-color="#F4AAA7"/>
</linearGradient>
</defs>
</svg>
